<mxfile host="app.diagrams.net" modified="2021-10-15T02:04:52.024Z" agent="5.0 (Macintosh; Intel Mac OS X 10_15_7) AppleWebKit/605.1.15 (KHTML, like Gecko) Version/14.0 Safari/605.1.15" etag="mVMsxm8NKPx6mOO7PGKi" version="15.5.2" type="github">
  <diagram id="CjfQBDizP03ljIALrH3r" name="Page-1">
    <mxGraphModel dx="786" dy="562" grid="1" gridSize="10" guides="1" tooltips="1" connect="1" arrows="1" fold="1" page="1" pageScale="1" pageWidth="850" pageHeight="1100" math="0" shadow="0">
      <root>
        <mxCell id="0" />
        <mxCell id="1" parent="0" />
        <mxCell id="fhI_MAW543BDFD8Se3oL-212" value="" style="rounded=0;whiteSpace=wrap;html=1;strokeColor=default;" vertex="1" parent="1">
          <mxGeometry x="81.88" y="1080" width="640" height="550" as="geometry" />
        </mxCell>
        <mxCell id="fhI_MAW543BDFD8Se3oL-78" value="" style="rounded=0;whiteSpace=wrap;html=1;strokeColor=default;" vertex="1" parent="1">
          <mxGeometry x="90" y="30" width="657.5" height="520" as="geometry" />
        </mxCell>
        <mxCell id="fhI_MAW543BDFD8Se3oL-95" value="" style="rounded=0;whiteSpace=wrap;html=1;strokeColor=default;" vertex="1" parent="1">
          <mxGeometry x="320.5" y="368.5" width="230" height="160" as="geometry" />
        </mxCell>
        <mxCell id="fhI_MAW543BDFD8Se3oL-94" value="" style="rounded=0;whiteSpace=wrap;html=1;strokeColor=default;" vertex="1" parent="1">
          <mxGeometry x="120" y="90" width="120" height="440" as="geometry" />
        </mxCell>
        <mxCell id="fhI_MAW543BDFD8Se3oL-70" style="edgeStyle=orthogonalEdgeStyle;rounded=0;orthogonalLoop=1;jettySize=auto;html=1;exitX=0.5;exitY=1;exitDx=0;exitDy=0;entryX=1.007;entryY=0.173;entryDx=0;entryDy=0;entryPerimeter=0;startArrow=classic;startFill=1;endArrow=none;endFill=0;" edge="1" parent="1" source="fhI_MAW543BDFD8Se3oL-3" target="fhI_MAW543BDFD8Se3oL-67">
          <mxGeometry relative="1" as="geometry" />
        </mxCell>
        <mxCell id="fhI_MAW543BDFD8Se3oL-71" value="加密存储" style="edgeLabel;html=1;align=center;verticalAlign=middle;resizable=0;points=[];" vertex="1" connectable="0" parent="fhI_MAW543BDFD8Se3oL-70">
          <mxGeometry x="0.3754" relative="1" as="geometry">
            <mxPoint as="offset" />
          </mxGeometry>
        </mxCell>
        <mxCell id="fhI_MAW543BDFD8Se3oL-3" value="区块链网络" style="shape=image;html=1;verticalAlign=top;verticalLabelPosition=bottom;labelBackgroundColor=#ffffff;imageAspect=0;aspect=fixed;image=https://cdn1.iconfinder.com/data/icons/cryptocurrency-blockchain-fintech-free/32/Cryptocurrency_blockchain_data-37-128.png" vertex="1" parent="1">
          <mxGeometry x="584.5" y="230" width="128" height="128" as="geometry" />
        </mxCell>
        <mxCell id="fhI_MAW543BDFD8Se3oL-59" style="edgeStyle=orthogonalEdgeStyle;rounded=0;orthogonalLoop=1;jettySize=auto;html=1;exitX=0;exitY=0.75;exitDx=0;exitDy=0;exitPerimeter=0;entryX=0.93;entryY=0.5;entryDx=0;entryDy=0;entryPerimeter=0;" edge="1" parent="1" source="fhI_MAW543BDFD8Se3oL-5" target="fhI_MAW543BDFD8Se3oL-9">
          <mxGeometry relative="1" as="geometry">
            <Array as="points">
              <mxPoint x="397.5" y="155" />
              <mxPoint x="397.5" y="285" />
            </Array>
          </mxGeometry>
        </mxCell>
        <mxCell id="fhI_MAW543BDFD8Se3oL-62" value="获取数据文件数字指纹" style="edgeLabel;html=1;align=center;verticalAlign=middle;resizable=0;points=[];" vertex="1" connectable="0" parent="fhI_MAW543BDFD8Se3oL-59">
          <mxGeometry x="0.3821" y="-2" relative="1" as="geometry">
            <mxPoint as="offset" />
          </mxGeometry>
        </mxCell>
        <mxCell id="fhI_MAW543BDFD8Se3oL-60" style="edgeStyle=orthogonalEdgeStyle;rounded=0;orthogonalLoop=1;jettySize=auto;html=1;exitX=1;exitY=0.5;exitDx=0;exitDy=0;exitPerimeter=0;entryX=0;entryY=0.5;entryDx=0;entryDy=0;" edge="1" parent="1" source="fhI_MAW543BDFD8Se3oL-5" target="fhI_MAW543BDFD8Se3oL-4">
          <mxGeometry relative="1" as="geometry" />
        </mxCell>
        <mxCell id="fhI_MAW543BDFD8Se3oL-72" value="存储合约" style="edgeLabel;html=1;align=center;verticalAlign=middle;resizable=0;points=[];" vertex="1" connectable="0" parent="fhI_MAW543BDFD8Se3oL-60">
          <mxGeometry x="0.0295" relative="1" as="geometry">
            <mxPoint as="offset" />
          </mxGeometry>
        </mxCell>
        <mxCell id="fhI_MAW543BDFD8Se3oL-5" value="可信存储服务" style="sketch=0;points=[[0,0,0],[0.25,0,0],[0.5,0,0],[0.75,0,0],[1,0,0],[0,1,0],[0.25,1,0],[0.5,1,0],[0.75,1,0],[1,1,0],[0,0.25,0],[0,0.5,0],[0,0.75,0],[1,0.25,0],[1,0.5,0],[1,0.75,0]];outlineConnect=0;fontColor=#333333;gradientDirection=north;fillColor=#f5f5f5;strokeColor=#666666;dashed=0;verticalLabelPosition=bottom;verticalAlign=top;align=center;html=1;fontSize=12;fontStyle=0;aspect=fixed;shape=mxgraph.aws4.resourceIcon;resIcon=mxgraph.aws4.elastic_file_system;" vertex="1" parent="1">
          <mxGeometry x="427.5" y="96.8" width="78" height="78" as="geometry" />
        </mxCell>
        <mxCell id="fhI_MAW543BDFD8Se3oL-4" value="" style="aspect=fixed;perimeter=ellipsePerimeter;html=1;align=center;shadow=0;dashed=0;fontColor=#4277BB;labelBackgroundColor=#ffffff;fontSize=12;spacingTop=3;image;image=img/lib/ibm/blockchain/smart_contract.svg;imageBackground=default;" vertex="1" parent="1">
          <mxGeometry x="557.5" y="264" width="60" height="60" as="geometry" />
        </mxCell>
        <mxCell id="fhI_MAW543BDFD8Se3oL-68" style="edgeStyle=orthogonalEdgeStyle;rounded=0;orthogonalLoop=1;jettySize=auto;html=1;exitX=1;exitY=0.5;exitDx=0;exitDy=0;entryX=0;entryY=1.038;entryDx=0;entryDy=0;entryPerimeter=0;" edge="1" parent="1" source="fhI_MAW543BDFD8Se3oL-8" target="fhI_MAW543BDFD8Se3oL-65">
          <mxGeometry relative="1" as="geometry">
            <Array as="points">
              <mxPoint x="365.5" y="450" />
            </Array>
          </mxGeometry>
        </mxCell>
        <mxCell id="fhI_MAW543BDFD8Se3oL-77" value="哈希索引" style="edgeLabel;html=1;align=center;verticalAlign=middle;resizable=0;points=[];" vertex="1" connectable="0" parent="fhI_MAW543BDFD8Se3oL-68">
          <mxGeometry x="-0.1347" y="1" relative="1" as="geometry">
            <mxPoint as="offset" />
          </mxGeometry>
        </mxCell>
        <mxCell id="fhI_MAW543BDFD8Se3oL-8" value="数字指纹" style="shape=image;html=1;verticalAlign=top;verticalLabelPosition=bottom;labelBackgroundColor=#ffffff;imageAspect=0;aspect=fixed;image=https://cdn3.iconfinder.com/data/icons/file-set-volume-1/512/Artboard_12-128.png" vertex="1" parent="1">
          <mxGeometry x="135.5" y="405" width="89" height="89" as="geometry" />
        </mxCell>
        <mxCell id="fhI_MAW543BDFD8Se3oL-23" style="edgeStyle=orthogonalEdgeStyle;rounded=0;orthogonalLoop=1;jettySize=auto;html=1;exitX=0.5;exitY=0;exitDx=0;exitDy=0;exitPerimeter=0;" edge="1" parent="1" source="fhI_MAW543BDFD8Se3oL-9">
          <mxGeometry relative="1" as="geometry">
            <mxPoint x="180.5" y="171.60000000000002" as="targetPoint" />
          </mxGeometry>
        </mxCell>
        <mxCell id="fhI_MAW543BDFD8Se3oL-24" style="edgeStyle=orthogonalEdgeStyle;rounded=0;orthogonalLoop=1;jettySize=auto;html=1;exitX=0.5;exitY=1;exitDx=0;exitDy=0;exitPerimeter=0;" edge="1" parent="1" source="fhI_MAW543BDFD8Se3oL-9" target="fhI_MAW543BDFD8Se3oL-8">
          <mxGeometry relative="1" as="geometry" />
        </mxCell>
        <mxCell id="fhI_MAW543BDFD8Se3oL-63" value="获取公钥信息" style="edgeStyle=orthogonalEdgeStyle;rounded=0;orthogonalLoop=1;jettySize=auto;html=1;exitX=1;exitY=1;exitDx=0;exitDy=0;exitPerimeter=0;entryX=0.133;entryY=0.983;entryDx=0;entryDy=0;entryPerimeter=0;" edge="1" parent="1" source="fhI_MAW543BDFD8Se3oL-9" target="fhI_MAW543BDFD8Se3oL-4">
          <mxGeometry relative="1" as="geometry" />
        </mxCell>
        <mxCell id="fhI_MAW543BDFD8Se3oL-9" value="用户及持有密钥" style="sketch=0;aspect=fixed;pointerEvents=1;shadow=0;dashed=0;html=1;strokeColor=#666666;labelPosition=center;verticalLabelPosition=bottom;verticalAlign=top;align=center;shape=mxgraph.mscae.enterprise.user_permissions;fillColor=#f5f5f5;fontColor=#333333;" vertex="1" parent="1">
          <mxGeometry x="156.5" y="260" width="47" height="50" as="geometry" />
        </mxCell>
        <mxCell id="fhI_MAW543BDFD8Se3oL-55" style="edgeStyle=orthogonalEdgeStyle;rounded=0;orthogonalLoop=1;jettySize=auto;html=1;exitX=1;exitY=0.5;exitDx=0;exitDy=0;exitPerimeter=0;entryX=0;entryY=0.5;entryDx=0;entryDy=0;entryPerimeter=0;" edge="1" parent="1" source="fhI_MAW543BDFD8Se3oL-54" target="fhI_MAW543BDFD8Se3oL-5">
          <mxGeometry relative="1" as="geometry" />
        </mxCell>
        <mxCell id="fhI_MAW543BDFD8Se3oL-61" value="存储数据文件" style="edgeLabel;html=1;align=center;verticalAlign=middle;resizable=0;points=[];" vertex="1" connectable="0" parent="fhI_MAW543BDFD8Se3oL-55">
          <mxGeometry x="0.0051" y="4" relative="1" as="geometry">
            <mxPoint as="offset" />
          </mxGeometry>
        </mxCell>
        <mxCell id="fhI_MAW543BDFD8Se3oL-54" value="数据文件" style="verticalLabelPosition=bottom;html=1;verticalAlign=top;align=center;strokeColor=#666666;fillColor=#f5f5f5;shape=mxgraph.azure.file_2;pointerEvents=1;fontColor=#333333;" vertex="1" parent="1">
          <mxGeometry x="151.63" y="100" width="56.75" height="71.6" as="geometry" />
        </mxCell>
        <mxCell id="fhI_MAW543BDFD8Se3oL-64" value="数据文件哈希索引" style="swimlane;fontStyle=0;childLayout=stackLayout;horizontal=1;startSize=26;fillColor=none;horizontalStack=0;resizeParent=1;resizeParentMax=0;resizeLast=0;collapsible=1;marginBottom=0;" vertex="1" parent="1">
          <mxGeometry x="365.5" y="396.5" width="140" height="104" as="geometry" />
        </mxCell>
        <mxCell id="fhI_MAW543BDFD8Se3oL-65" value="数据文件哈希加密分片1" style="text;strokeColor=default;fillColor=none;align=left;verticalAlign=top;spacingLeft=4;spacingRight=4;overflow=hidden;rotatable=0;points=[[0,0.5],[1,0.5]];portConstraint=eastwest;" vertex="1" parent="fhI_MAW543BDFD8Se3oL-64">
          <mxGeometry y="26" width="140" height="26" as="geometry" />
        </mxCell>
        <mxCell id="fhI_MAW543BDFD8Se3oL-67" value="数据文件哈希加密分片2&#xa;" style="text;strokeColor=none;fillColor=none;align=left;verticalAlign=top;spacingLeft=4;spacingRight=4;overflow=hidden;rotatable=0;points=[[0,0.5],[1,0.5]];portConstraint=eastwest;" vertex="1" parent="fhI_MAW543BDFD8Se3oL-64">
          <mxGeometry y="52" width="140" height="26" as="geometry" />
        </mxCell>
        <mxCell id="fhI_MAW543BDFD8Se3oL-66" value="数据文件哈希加密分片3" style="text;strokeColor=default;fillColor=none;align=left;verticalAlign=top;spacingLeft=4;spacingRight=4;overflow=hidden;rotatable=0;points=[[0,0.5],[1,0.5]];portConstraint=eastwest;" vertex="1" parent="fhI_MAW543BDFD8Se3oL-64">
          <mxGeometry y="78" width="140" height="26" as="geometry" />
        </mxCell>
        <mxCell id="fhI_MAW543BDFD8Se3oL-79" value="1" style="whiteSpace=wrap;html=1;shape=partialRectangle;top=0;left=0;bottom=1;right=0;points=[[0,1],[1,1]];fillColor=none;align=center;verticalAlign=bottom;routingCenterY=0.5;snapToPoint=1;recursiveResize=0;autosize=1;treeFolding=1;treeMoving=1;newEdgeStyle={&quot;edgeStyle&quot;:&quot;entityRelationEdgeStyle&quot;,&quot;startArrow&quot;:&quot;none&quot;,&quot;endArrow&quot;:&quot;none&quot;,&quot;segment&quot;:10,&quot;curved&quot;:1};strokeColor=default;" vertex="1" parent="1">
          <mxGeometry x="277.5" y="50" width="40" height="20" as="geometry" />
        </mxCell>
        <mxCell id="fhI_MAW543BDFD8Se3oL-80" value="" style="edgeStyle=entityRelationEdgeStyle;startArrow=none;endArrow=none;segment=10;curved=1;rounded=0;" edge="1" target="fhI_MAW543BDFD8Se3oL-79" parent="1">
          <mxGeometry relative="1" as="geometry">
            <mxPoint x="217.5" y="90" as="sourcePoint" />
          </mxGeometry>
        </mxCell>
        <mxCell id="fhI_MAW543BDFD8Se3oL-88" value="2" style="whiteSpace=wrap;html=1;shape=partialRectangle;top=0;left=0;bottom=1;right=0;points=[[0,1],[1,1]];fillColor=none;align=center;verticalAlign=bottom;routingCenterY=0.5;snapToPoint=1;recursiveResize=0;autosize=1;treeFolding=1;treeMoving=1;newEdgeStyle={&quot;edgeStyle&quot;:&quot;entityRelationEdgeStyle&quot;,&quot;startArrow&quot;:&quot;none&quot;,&quot;endArrow&quot;:&quot;none&quot;,&quot;segment&quot;:10,&quot;curved&quot;:1};strokeColor=default;" vertex="1" parent="1">
          <mxGeometry x="565.5" y="60" width="40" height="20" as="geometry" />
        </mxCell>
        <mxCell id="fhI_MAW543BDFD8Se3oL-89" value="" style="edgeStyle=entityRelationEdgeStyle;startArrow=none;endArrow=none;segment=10;curved=1;rounded=0;" edge="1" parent="1" target="fhI_MAW543BDFD8Se3oL-88">
          <mxGeometry relative="1" as="geometry">
            <mxPoint x="505.5" y="100" as="sourcePoint" />
          </mxGeometry>
        </mxCell>
        <mxCell id="fhI_MAW543BDFD8Se3oL-90" value="3" style="whiteSpace=wrap;html=1;shape=partialRectangle;top=0;left=0;bottom=1;right=0;points=[[0,1],[1,1]];fillColor=none;align=center;verticalAlign=bottom;routingCenterY=0.5;snapToPoint=1;recursiveResize=0;autosize=1;treeFolding=1;treeMoving=1;newEdgeStyle={&quot;edgeStyle&quot;:&quot;entityRelationEdgeStyle&quot;,&quot;startArrow&quot;:&quot;none&quot;,&quot;endArrow&quot;:&quot;none&quot;,&quot;segment&quot;:10,&quot;curved&quot;:1};strokeColor=default;" vertex="1" parent="1">
          <mxGeometry x="677.5" y="200" width="40" height="20" as="geometry" />
        </mxCell>
        <mxCell id="fhI_MAW543BDFD8Se3oL-91" value="" style="edgeStyle=entityRelationEdgeStyle;startArrow=none;endArrow=none;segment=10;curved=1;rounded=0;" edge="1" parent="1" target="fhI_MAW543BDFD8Se3oL-90">
          <mxGeometry relative="1" as="geometry">
            <mxPoint x="617.5" y="240" as="sourcePoint" />
          </mxGeometry>
        </mxCell>
        <mxCell id="fhI_MAW543BDFD8Se3oL-92" value="4" style="whiteSpace=wrap;html=1;shape=partialRectangle;top=0;left=0;bottom=1;right=0;points=[[0,1],[1,1]];fillColor=none;align=center;verticalAlign=bottom;routingCenterY=0.5;snapToPoint=1;recursiveResize=0;autosize=1;treeFolding=1;treeMoving=1;newEdgeStyle={&quot;edgeStyle&quot;:&quot;entityRelationEdgeStyle&quot;,&quot;startArrow&quot;:&quot;none&quot;,&quot;endArrow&quot;:&quot;none&quot;,&quot;segment&quot;:10,&quot;curved&quot;:1};strokeColor=default;" vertex="1" parent="1">
          <mxGeometry x="446.5" y="290" width="40" height="20" as="geometry" />
        </mxCell>
        <mxCell id="fhI_MAW543BDFD8Se3oL-93" value="" style="edgeStyle=entityRelationEdgeStyle;startArrow=none;endArrow=none;segment=10;curved=1;rounded=0;exitX=0.25;exitY=0;exitDx=0;exitDy=0;" edge="1" parent="1" target="fhI_MAW543BDFD8Se3oL-92" source="fhI_MAW543BDFD8Se3oL-4">
          <mxGeometry relative="1" as="geometry">
            <mxPoint x="427.5" y="320" as="sourcePoint" />
          </mxGeometry>
        </mxCell>
        <mxCell id="fhI_MAW543BDFD8Se3oL-98" value="5" style="whiteSpace=wrap;html=1;shape=partialRectangle;top=0;left=0;bottom=1;right=0;points=[[0,1],[1,1]];fillColor=none;align=center;verticalAlign=bottom;routingCenterY=0.5;snapToPoint=1;recursiveResize=0;autosize=1;treeFolding=1;treeMoving=1;newEdgeStyle={&quot;edgeStyle&quot;:&quot;entityRelationEdgeStyle&quot;,&quot;startArrow&quot;:&quot;none&quot;,&quot;endArrow&quot;:&quot;none&quot;,&quot;segment&quot;:10,&quot;curved&quot;:1};strokeColor=default;" vertex="1" parent="1">
          <mxGeometry x="610.5" y="460.5" width="40" height="20" as="geometry" />
        </mxCell>
        <mxCell id="fhI_MAW543BDFD8Se3oL-99" value="" style="edgeStyle=entityRelationEdgeStyle;startArrow=none;endArrow=none;segment=10;curved=1;rounded=0;" edge="1" parent="1" target="fhI_MAW543BDFD8Se3oL-98">
          <mxGeometry relative="1" as="geometry">
            <mxPoint x="550.5" y="500.5" as="sourcePoint" />
          </mxGeometry>
        </mxCell>
        <mxCell id="fhI_MAW543BDFD8Se3oL-100" value="用户端" style="text;html=1;strokeColor=none;fillColor=none;align=center;verticalAlign=middle;whiteSpace=wrap;rounded=0;" vertex="1" parent="1">
          <mxGeometry x="143.5" y="55" width="60" height="30" as="geometry" />
        </mxCell>
        <mxCell id="fhI_MAW543BDFD8Se3oL-102" value="" style="rounded=0;whiteSpace=wrap;html=1;strokeColor=default;" vertex="1" parent="1">
          <mxGeometry x="91" y="619" width="589" height="350" as="geometry" />
        </mxCell>
        <mxCell id="fhI_MAW543BDFD8Se3oL-124" style="edgeStyle=orthogonalEdgeStyle;rounded=0;orthogonalLoop=1;jettySize=auto;html=1;exitX=1;exitY=0.5;exitDx=0;exitDy=0;startArrow=classic;startFill=1;endArrow=classic;endFill=1;strokeWidth=2;" edge="1" parent="1" source="fhI_MAW543BDFD8Se3oL-103" target="fhI_MAW543BDFD8Se3oL-104">
          <mxGeometry relative="1" as="geometry" />
        </mxCell>
        <mxCell id="fhI_MAW543BDFD8Se3oL-103" value="交互操作" style="rounded=0;whiteSpace=wrap;html=1;strokeColor=default;fontStyle=1" vertex="1" parent="1">
          <mxGeometry x="144.5" y="649" width="120" height="60" as="geometry" />
        </mxCell>
        <mxCell id="fhI_MAW543BDFD8Se3oL-125" style="edgeStyle=orthogonalEdgeStyle;rounded=0;orthogonalLoop=1;jettySize=auto;html=1;exitX=1;exitY=0.5;exitDx=0;exitDy=0;entryX=0;entryY=0.5;entryDx=0;entryDy=0;startArrow=classic;startFill=1;endArrow=classic;endFill=1;strokeWidth=2;" edge="1" parent="1" source="fhI_MAW543BDFD8Se3oL-104" target="fhI_MAW543BDFD8Se3oL-105">
          <mxGeometry relative="1" as="geometry" />
        </mxCell>
        <mxCell id="fhI_MAW543BDFD8Se3oL-127" style="edgeStyle=orthogonalEdgeStyle;rounded=0;orthogonalLoop=1;jettySize=auto;html=1;exitX=0.5;exitY=1;exitDx=0;exitDy=0;entryX=0.75;entryY=0;entryDx=0;entryDy=0;startArrow=classic;startFill=1;endArrow=classic;endFill=1;strokeWidth=2;" edge="1" parent="1" source="fhI_MAW543BDFD8Se3oL-104" target="fhI_MAW543BDFD8Se3oL-106">
          <mxGeometry relative="1" as="geometry" />
        </mxCell>
        <mxCell id="fhI_MAW543BDFD8Se3oL-104" value="核心API" style="ellipse;whiteSpace=wrap;html=1;strokeColor=default;fontStyle=1" vertex="1" parent="1">
          <mxGeometry x="325.5" y="639" width="120" height="80" as="geometry" />
        </mxCell>
        <mxCell id="fhI_MAW543BDFD8Se3oL-105" value="服务接口" style="rounded=0;whiteSpace=wrap;html=1;strokeColor=default;fontStyle=1" vertex="1" parent="1">
          <mxGeometry x="505" y="649" width="120" height="60" as="geometry" />
        </mxCell>
        <mxCell id="fhI_MAW543BDFD8Se3oL-126" style="edgeStyle=orthogonalEdgeStyle;rounded=0;orthogonalLoop=1;jettySize=auto;html=1;exitX=1;exitY=0.5;exitDx=0;exitDy=0;startArrow=classic;startFill=1;endArrow=classic;endFill=1;strokeWidth=2;entryX=0;entryY=0.5;entryDx=0;entryDy=0;" edge="1" parent="1" source="fhI_MAW543BDFD8Se3oL-106" target="fhI_MAW543BDFD8Se3oL-107">
          <mxGeometry relative="1" as="geometry">
            <mxPoint x="504.5" y="848.5" as="targetPoint" />
          </mxGeometry>
        </mxCell>
        <mxCell id="fhI_MAW543BDFD8Se3oL-106" value="&lt;b&gt;数据服务&lt;/b&gt;" style="rounded=0;whiteSpace=wrap;html=1;strokeColor=default;labelPosition=center;verticalLabelPosition=top;align=center;verticalAlign=bottom;" vertex="1" parent="1">
          <mxGeometry x="144.88" y="763.5" width="321.62" height="175" as="geometry" />
        </mxCell>
        <mxCell id="fhI_MAW543BDFD8Se3oL-107" value="&lt;b&gt;数据路由&lt;/b&gt;" style="rounded=0;whiteSpace=wrap;html=1;strokeColor=default;labelPosition=center;verticalLabelPosition=top;align=center;verticalAlign=bottom;" vertex="1" parent="1">
          <mxGeometry x="504.5" y="764" width="130" height="175" as="geometry" />
        </mxCell>
        <mxCell id="fhI_MAW543BDFD8Se3oL-111" value="安全校验" style="rounded=1;whiteSpace=wrap;html=1;strokeColor=default;" vertex="1" parent="1">
          <mxGeometry x="522.25" y="779" width="94.5" height="30" as="geometry" />
        </mxCell>
        <mxCell id="fhI_MAW543BDFD8Se3oL-112" value="哈希路由" style="rounded=1;whiteSpace=wrap;html=1;strokeColor=default;" vertex="1" parent="1">
          <mxGeometry x="522.25" y="819" width="94.5" height="30" as="geometry" />
        </mxCell>
        <mxCell id="fhI_MAW543BDFD8Se3oL-120" value="订阅发布" style="rounded=1;whiteSpace=wrap;html=1;strokeColor=default;" vertex="1" parent="1">
          <mxGeometry x="522" y="899" width="94.5" height="30" as="geometry" />
        </mxCell>
        <mxCell id="fhI_MAW543BDFD8Se3oL-130" value="订阅发布" style="rounded=1;whiteSpace=wrap;html=1;strokeColor=default;" vertex="1" parent="1">
          <mxGeometry x="522" y="859" width="94.5" height="30" as="geometry" />
        </mxCell>
        <mxCell id="fhI_MAW543BDFD8Se3oL-141" value="" style="shape=flexArrow;endArrow=classic;startArrow=classic;html=1;rounded=0;strokeWidth=2;startWidth=39;startSize=18;width=24;endWidth=39;endSize=18;" edge="1" parent="1">
          <mxGeometry width="100" height="100" relative="1" as="geometry">
            <mxPoint x="101.88" y="1381" as="sourcePoint" />
            <mxPoint x="711.88" y="1381" as="targetPoint" />
          </mxGeometry>
        </mxCell>
        <mxCell id="fhI_MAW543BDFD8Se3oL-210" value="多重哈希校验和交易共识" style="edgeLabel;html=1;align=center;verticalAlign=middle;resizable=0;points=[];fontStyle=1" vertex="1" connectable="0" parent="fhI_MAW543BDFD8Se3oL-141">
          <mxGeometry x="-0.0328" y="1" relative="1" as="geometry">
            <mxPoint as="offset" />
          </mxGeometry>
        </mxCell>
        <mxCell id="fhI_MAW543BDFD8Se3oL-150" value="" style="group;labelPosition=center;verticalLabelPosition=bottom;align=center;verticalAlign=top;" vertex="1" connectable="0" parent="1">
          <mxGeometry x="122.88" y="1433" width="157.5" height="175" as="geometry" />
        </mxCell>
        <mxCell id="fhI_MAW543BDFD8Se3oL-132" value="&lt;b&gt;交易区块&lt;/b&gt;" style="rounded=0;whiteSpace=wrap;html=1;strokeColor=default;labelPosition=center;verticalLabelPosition=top;align=center;verticalAlign=bottom;" vertex="1" parent="fhI_MAW543BDFD8Se3oL-150">
          <mxGeometry width="157.5" height="175" as="geometry" />
        </mxCell>
        <mxCell id="fhI_MAW543BDFD8Se3oL-133" value="前一交易&lt;br&gt;区块哈希" style="rounded=0;whiteSpace=wrap;html=1;strokeColor=default;" vertex="1" parent="fhI_MAW543BDFD8Se3oL-150">
          <mxGeometry x="7.596038774533271" y="10" width="61.72959550023935" height="50" as="geometry" />
        </mxCell>
        <mxCell id="fhI_MAW543BDFD8Se3oL-134" value="数据哈希&lt;br&gt;校验位" style="rounded=0;whiteSpace=wrap;html=1;strokeColor=default;" vertex="1" parent="fhI_MAW543BDFD8Se3oL-150">
          <mxGeometry x="86.28949258018191" y="10" width="61.72959550023935" height="50" as="geometry" />
        </mxCell>
        <mxCell id="fhI_MAW543BDFD8Se3oL-135" style="edgeStyle=orthogonalEdgeStyle;rounded=0;orthogonalLoop=1;jettySize=auto;html=1;exitX=0.5;exitY=1;exitDx=0;exitDy=0;entryX=0.5;entryY=1;entryDx=0;entryDy=0;startArrow=none;startFill=0;endArrow=none;endFill=0;strokeWidth=2;" edge="1" parent="fhI_MAW543BDFD8Se3oL-150" source="fhI_MAW543BDFD8Se3oL-133" target="fhI_MAW543BDFD8Se3oL-134">
          <mxGeometry relative="1" as="geometry" />
        </mxCell>
        <mxCell id="fhI_MAW543BDFD8Se3oL-140" style="edgeStyle=orthogonalEdgeStyle;rounded=0;orthogonalLoop=1;jettySize=auto;html=1;exitX=0.5;exitY=0;exitDx=0;exitDy=0;startArrow=none;startFill=0;endArrow=none;endFill=0;strokeWidth=2;" edge="1" parent="fhI_MAW543BDFD8Se3oL-150">
          <mxGeometry relative="1" as="geometry">
            <mxPoint x="78.75" y="80" as="targetPoint" />
            <mxPoint x="81.10609143130685" y="99" as="sourcePoint" />
          </mxGeometry>
        </mxCell>
        <mxCell id="fhI_MAW543BDFD8Se3oL-136" value="顶层树根" style="rounded=0;whiteSpace=wrap;html=1;strokeColor=default;" vertex="1" parent="fhI_MAW543BDFD8Se3oL-150">
          <mxGeometry x="18.90527764480613" y="99" width="113.09238870272858" height="30" as="geometry" />
        </mxCell>
        <mxCell id="fhI_MAW543BDFD8Se3oL-137" value="时间戳" style="rounded=0;whiteSpace=wrap;html=1;strokeColor=default;" vertex="1" parent="fhI_MAW543BDFD8Se3oL-150">
          <mxGeometry x="7.596038774533271" y="140" width="61.72959550023935" height="30" as="geometry" />
        </mxCell>
        <mxCell id="fhI_MAW543BDFD8Se3oL-138" value="参数" style="rounded=0;whiteSpace=wrap;html=1;strokeColor=default;" vertex="1" parent="fhI_MAW543BDFD8Se3oL-150">
          <mxGeometry x="86.28949258018191" y="140" width="61.72959550023935" height="30" as="geometry" />
        </mxCell>
        <mxCell id="fhI_MAW543BDFD8Se3oL-162" value="" style="group;labelPosition=center;verticalLabelPosition=bottom;align=center;verticalAlign=top;" vertex="1" connectable="0" parent="1">
          <mxGeometry x="321.88" y="1433" width="161.62" height="175" as="geometry" />
        </mxCell>
        <mxCell id="fhI_MAW543BDFD8Se3oL-163" value="&lt;b&gt;交易区块&lt;/b&gt;" style="rounded=0;whiteSpace=wrap;html=1;strokeColor=default;labelPosition=center;verticalLabelPosition=top;align=center;verticalAlign=bottom;" vertex="1" parent="fhI_MAW543BDFD8Se3oL-162">
          <mxGeometry width="161.62" height="175" as="geometry" />
        </mxCell>
        <mxCell id="fhI_MAW543BDFD8Se3oL-164" value="前一交易&lt;br&gt;区块哈希" style="rounded=0;whiteSpace=wrap;html=1;strokeColor=default;" vertex="1" parent="fhI_MAW543BDFD8Se3oL-162">
          <mxGeometry x="7.794741503111539" y="10" width="63.344363331737675" height="50" as="geometry" />
        </mxCell>
        <mxCell id="fhI_MAW543BDFD8Se3oL-165" value="数据哈希&lt;br&gt;校验位" style="rounded=0;whiteSpace=wrap;html=1;strokeColor=default;" vertex="1" parent="fhI_MAW543BDFD8Se3oL-162">
          <mxGeometry x="88.54671613212064" y="10" width="63.344363331737675" height="50" as="geometry" />
        </mxCell>
        <mxCell id="fhI_MAW543BDFD8Se3oL-166" style="edgeStyle=orthogonalEdgeStyle;rounded=0;orthogonalLoop=1;jettySize=auto;html=1;exitX=0.5;exitY=1;exitDx=0;exitDy=0;entryX=0.5;entryY=1;entryDx=0;entryDy=0;startArrow=none;startFill=0;endArrow=none;endFill=0;strokeWidth=2;" edge="1" parent="fhI_MAW543BDFD8Se3oL-162" source="fhI_MAW543BDFD8Se3oL-164" target="fhI_MAW543BDFD8Se3oL-165">
          <mxGeometry relative="1" as="geometry" />
        </mxCell>
        <mxCell id="fhI_MAW543BDFD8Se3oL-167" style="edgeStyle=orthogonalEdgeStyle;rounded=0;orthogonalLoop=1;jettySize=auto;html=1;exitX=0.5;exitY=0;exitDx=0;exitDy=0;startArrow=none;startFill=0;endArrow=none;endFill=0;strokeWidth=2;" edge="1" parent="fhI_MAW543BDFD8Se3oL-162">
          <mxGeometry relative="1" as="geometry">
            <mxPoint x="80.81" y="80" as="targetPoint" />
            <mxPoint x="83.2277237912877" y="99" as="sourcePoint" />
          </mxGeometry>
        </mxCell>
        <mxCell id="fhI_MAW543BDFD8Se3oL-168" value="顶层树根" style="rounded=0;whiteSpace=wrap;html=1;strokeColor=default;" vertex="1" parent="fhI_MAW543BDFD8Se3oL-162">
          <mxGeometry x="19.399815701292486" y="99" width="116.05074198180948" height="30" as="geometry" />
        </mxCell>
        <mxCell id="fhI_MAW543BDFD8Se3oL-169" value="时间戳" style="rounded=0;whiteSpace=wrap;html=1;strokeColor=default;" vertex="1" parent="fhI_MAW543BDFD8Se3oL-162">
          <mxGeometry x="7.794741503111539" y="140" width="63.344363331737675" height="30" as="geometry" />
        </mxCell>
        <mxCell id="fhI_MAW543BDFD8Se3oL-170" value="参数" style="rounded=0;whiteSpace=wrap;html=1;strokeColor=default;" vertex="1" parent="fhI_MAW543BDFD8Se3oL-162">
          <mxGeometry x="88.54671613212064" y="140" width="63.344363331737675" height="30" as="geometry" />
        </mxCell>
        <mxCell id="fhI_MAW543BDFD8Se3oL-171" value="" style="group;labelPosition=center;verticalLabelPosition=bottom;align=center;verticalAlign=top;" vertex="1" connectable="0" parent="1">
          <mxGeometry x="521.88" y="1433" width="160" height="175" as="geometry" />
        </mxCell>
        <mxCell id="fhI_MAW543BDFD8Se3oL-172" value="&lt;b&gt;交易区块&lt;/b&gt;" style="rounded=0;whiteSpace=wrap;html=1;strokeColor=default;labelPosition=center;verticalLabelPosition=top;align=center;verticalAlign=bottom;" vertex="1" parent="fhI_MAW543BDFD8Se3oL-171">
          <mxGeometry width="160" height="175" as="geometry" />
        </mxCell>
        <mxCell id="fhI_MAW543BDFD8Se3oL-173" value="前一交易&lt;br&gt;区块哈希" style="rounded=0;whiteSpace=wrap;html=1;strokeColor=default;" vertex="1" parent="fhI_MAW543BDFD8Se3oL-171">
          <mxGeometry x="7.716610818573482" y="10" width="62.70943034944949" height="50" as="geometry" />
        </mxCell>
        <mxCell id="fhI_MAW543BDFD8Se3oL-174" value="数据哈希&lt;br&gt;校验位" style="rounded=0;whiteSpace=wrap;html=1;strokeColor=default;" vertex="1" parent="fhI_MAW543BDFD8Se3oL-171">
          <mxGeometry x="87.65916706558161" y="10" width="62.70943034944949" height="50" as="geometry" />
        </mxCell>
        <mxCell id="fhI_MAW543BDFD8Se3oL-175" style="edgeStyle=orthogonalEdgeStyle;rounded=0;orthogonalLoop=1;jettySize=auto;html=1;exitX=0.5;exitY=1;exitDx=0;exitDy=0;entryX=0.5;entryY=1;entryDx=0;entryDy=0;startArrow=none;startFill=0;endArrow=none;endFill=0;strokeWidth=2;" edge="1" parent="fhI_MAW543BDFD8Se3oL-171" source="fhI_MAW543BDFD8Se3oL-173" target="fhI_MAW543BDFD8Se3oL-174">
          <mxGeometry relative="1" as="geometry">
            <Array as="points">
              <mxPoint x="39.25323121110579" y="80" />
              <mxPoint x="118.71708951651507" y="80" />
            </Array>
          </mxGeometry>
        </mxCell>
        <mxCell id="fhI_MAW543BDFD8Se3oL-176" style="edgeStyle=orthogonalEdgeStyle;rounded=0;orthogonalLoop=1;jettySize=auto;html=1;exitX=0.5;exitY=0;exitDx=0;exitDy=0;startArrow=none;startFill=0;endArrow=none;endFill=0;strokeWidth=2;" edge="1" parent="fhI_MAW543BDFD8Se3oL-171">
          <mxGeometry relative="1" as="geometry">
            <mxPoint x="80" y="80" as="targetPoint" />
            <mxPoint x="82.39348970799425" y="99" as="sourcePoint" />
          </mxGeometry>
        </mxCell>
        <mxCell id="fhI_MAW543BDFD8Se3oL-177" value="顶层树根" style="rounded=0;whiteSpace=wrap;html=1;strokeColor=default;" vertex="1" parent="fhI_MAW543BDFD8Se3oL-171">
          <mxGeometry x="19.20536141694591" y="99" width="114.88750598372427" height="30" as="geometry" />
        </mxCell>
        <mxCell id="fhI_MAW543BDFD8Se3oL-178" value="时间戳" style="rounded=0;whiteSpace=wrap;html=1;strokeColor=default;" vertex="1" parent="fhI_MAW543BDFD8Se3oL-171">
          <mxGeometry x="7.716610818573482" y="140" width="62.70943034944949" height="30" as="geometry" />
        </mxCell>
        <mxCell id="fhI_MAW543BDFD8Se3oL-179" value="参数" style="rounded=0;whiteSpace=wrap;html=1;strokeColor=default;" vertex="1" parent="fhI_MAW543BDFD8Se3oL-171">
          <mxGeometry x="87.65916706558161" y="140" width="62.70943034944949" height="30" as="geometry" />
        </mxCell>
        <mxCell id="fhI_MAW543BDFD8Se3oL-180" value="&lt;b&gt;状态数据&lt;/b&gt;" style="rounded=0;whiteSpace=wrap;html=1;strokeColor=default;labelPosition=center;verticalLabelPosition=bottom;align=center;verticalAlign=top;horizontal=1;textDirection=ltr;" vertex="1" parent="1">
          <mxGeometry x="122.88" y="1160" width="160" height="160" as="geometry" />
        </mxCell>
        <mxCell id="fhI_MAW543BDFD8Se3oL-181" value="A" style="ellipse;whiteSpace=wrap;html=1;aspect=fixed;strokeColor=default;" vertex="1" parent="1">
          <mxGeometry x="128.26" y="1221" width="45" height="45" as="geometry" />
        </mxCell>
        <mxCell id="fhI_MAW543BDFD8Se3oL-182" value="A1" style="ellipse;whiteSpace=wrap;html=1;aspect=fixed;strokeColor=default;" vertex="1" parent="1">
          <mxGeometry x="232.26" y="1168" width="45" height="45" as="geometry" />
        </mxCell>
        <mxCell id="fhI_MAW543BDFD8Se3oL-183" value="A2" style="ellipse;whiteSpace=wrap;html=1;aspect=fixed;strokeColor=default;" vertex="1" parent="1">
          <mxGeometry x="231.26" y="1266" width="45" height="45" as="geometry" />
        </mxCell>
        <mxCell id="fhI_MAW543BDFD8Se3oL-189" value="" style="endArrow=classic;startArrow=classic;html=1;rounded=0;sketch=0;strokeColor=default;strokeWidth=2;jumpStyle=none;dashed=1;dashPattern=1 2;" edge="1" parent="1" source="fhI_MAW543BDFD8Se3oL-181" target="fhI_MAW543BDFD8Se3oL-182">
          <mxGeometry width="50" height="50" relative="1" as="geometry">
            <mxPoint x="153.51" y="1250" as="sourcePoint" />
            <mxPoint x="203.51" y="1200" as="targetPoint" />
          </mxGeometry>
        </mxCell>
        <mxCell id="fhI_MAW543BDFD8Se3oL-191" value="索引" style="edgeLabel;html=1;align=center;verticalAlign=middle;resizable=0;points=[];" vertex="1" connectable="0" parent="fhI_MAW543BDFD8Se3oL-189">
          <mxGeometry x="0.0557" y="3" relative="1" as="geometry">
            <mxPoint y="1" as="offset" />
          </mxGeometry>
        </mxCell>
        <mxCell id="fhI_MAW543BDFD8Se3oL-190" value="" style="endArrow=classic;startArrow=classic;html=1;rounded=0;sketch=0;strokeColor=default;strokeWidth=2;jumpStyle=none;dashed=1;dashPattern=1 2;" edge="1" parent="1" source="fhI_MAW543BDFD8Se3oL-181" target="fhI_MAW543BDFD8Se3oL-183">
          <mxGeometry width="50" height="50" relative="1" as="geometry">
            <mxPoint x="183.4769137151825" y="1244.7216467308547" as="sourcePoint" />
            <mxPoint x="222.14645996470472" y="1227.5184237654419" as="targetPoint" />
          </mxGeometry>
        </mxCell>
        <mxCell id="fhI_MAW543BDFD8Se3oL-192" value="索引" style="edgeLabel;html=1;align=center;verticalAlign=middle;resizable=0;points=[];" vertex="1" connectable="0" parent="fhI_MAW543BDFD8Se3oL-190">
          <mxGeometry x="-0.0098" y="1" relative="1" as="geometry">
            <mxPoint as="offset" />
          </mxGeometry>
        </mxCell>
        <mxCell id="fhI_MAW543BDFD8Se3oL-193" value="&lt;b&gt;状态数据&lt;/b&gt;" style="rounded=0;whiteSpace=wrap;html=1;strokeColor=default;labelPosition=center;verticalLabelPosition=bottom;align=center;verticalAlign=top;horizontal=1;textDirection=ltr;" vertex="1" parent="1">
          <mxGeometry x="321.88" y="1160" width="160" height="160" as="geometry" />
        </mxCell>
        <mxCell id="fhI_MAW543BDFD8Se3oL-194" value="B" style="ellipse;whiteSpace=wrap;html=1;aspect=fixed;strokeColor=default;" vertex="1" parent="1">
          <mxGeometry x="327.26" y="1221" width="45" height="45" as="geometry" />
        </mxCell>
        <mxCell id="fhI_MAW543BDFD8Se3oL-195" value="B1" style="ellipse;whiteSpace=wrap;html=1;aspect=fixed;strokeColor=default;" vertex="1" parent="1">
          <mxGeometry x="431.26" y="1168" width="45" height="45" as="geometry" />
        </mxCell>
        <mxCell id="fhI_MAW543BDFD8Se3oL-196" value="B2" style="ellipse;whiteSpace=wrap;html=1;aspect=fixed;strokeColor=default;" vertex="1" parent="1">
          <mxGeometry x="430.26" y="1266" width="45" height="45" as="geometry" />
        </mxCell>
        <mxCell id="fhI_MAW543BDFD8Se3oL-197" value="" style="endArrow=classic;startArrow=classic;html=1;rounded=0;sketch=0;strokeColor=default;strokeWidth=2;jumpStyle=none;dashed=1;dashPattern=1 2;" edge="1" parent="1" source="fhI_MAW543BDFD8Se3oL-194" target="fhI_MAW543BDFD8Se3oL-195">
          <mxGeometry width="50" height="50" relative="1" as="geometry">
            <mxPoint x="352.51" y="1250" as="sourcePoint" />
            <mxPoint x="402.51" y="1200" as="targetPoint" />
          </mxGeometry>
        </mxCell>
        <mxCell id="fhI_MAW543BDFD8Se3oL-198" value="索引" style="edgeLabel;html=1;align=center;verticalAlign=middle;resizable=0;points=[];" vertex="1" connectable="0" parent="fhI_MAW543BDFD8Se3oL-197">
          <mxGeometry x="0.0557" y="3" relative="1" as="geometry">
            <mxPoint y="1" as="offset" />
          </mxGeometry>
        </mxCell>
        <mxCell id="fhI_MAW543BDFD8Se3oL-199" value="" style="endArrow=classic;startArrow=classic;html=1;rounded=0;sketch=0;strokeColor=default;strokeWidth=2;jumpStyle=none;dashed=1;dashPattern=1 2;" edge="1" parent="1" source="fhI_MAW543BDFD8Se3oL-194" target="fhI_MAW543BDFD8Se3oL-196">
          <mxGeometry width="50" height="50" relative="1" as="geometry">
            <mxPoint x="382.4769137151825" y="1244.7216467308547" as="sourcePoint" />
            <mxPoint x="421.1464599647047" y="1227.5184237654419" as="targetPoint" />
          </mxGeometry>
        </mxCell>
        <mxCell id="fhI_MAW543BDFD8Se3oL-200" value="索引" style="edgeLabel;html=1;align=center;verticalAlign=middle;resizable=0;points=[];" vertex="1" connectable="0" parent="fhI_MAW543BDFD8Se3oL-199">
          <mxGeometry x="-0.0098" y="1" relative="1" as="geometry">
            <mxPoint as="offset" />
          </mxGeometry>
        </mxCell>
        <mxCell id="fhI_MAW543BDFD8Se3oL-201" value="&lt;b&gt;状态数据&lt;/b&gt;" style="rounded=0;whiteSpace=wrap;html=1;strokeColor=default;labelPosition=center;verticalLabelPosition=bottom;align=center;verticalAlign=top;horizontal=1;textDirection=ltr;" vertex="1" parent="1">
          <mxGeometry x="521.88" y="1160" width="160" height="160" as="geometry" />
        </mxCell>
        <mxCell id="fhI_MAW543BDFD8Se3oL-202" value="C" style="ellipse;whiteSpace=wrap;html=1;aspect=fixed;strokeColor=default;" vertex="1" parent="1">
          <mxGeometry x="527.26" y="1221" width="45" height="45" as="geometry" />
        </mxCell>
        <mxCell id="fhI_MAW543BDFD8Se3oL-203" value="C1" style="ellipse;whiteSpace=wrap;html=1;aspect=fixed;strokeColor=default;" vertex="1" parent="1">
          <mxGeometry x="631.26" y="1168" width="45" height="45" as="geometry" />
        </mxCell>
        <mxCell id="fhI_MAW543BDFD8Se3oL-204" value="C2" style="ellipse;whiteSpace=wrap;html=1;aspect=fixed;strokeColor=default;" vertex="1" parent="1">
          <mxGeometry x="630.26" y="1266" width="45" height="45" as="geometry" />
        </mxCell>
        <mxCell id="fhI_MAW543BDFD8Se3oL-205" value="" style="endArrow=classic;startArrow=classic;html=1;rounded=0;sketch=0;strokeColor=default;strokeWidth=2;jumpStyle=none;dashed=1;dashPattern=1 2;" edge="1" parent="1" source="fhI_MAW543BDFD8Se3oL-202" target="fhI_MAW543BDFD8Se3oL-203">
          <mxGeometry width="50" height="50" relative="1" as="geometry">
            <mxPoint x="552.51" y="1250" as="sourcePoint" />
            <mxPoint x="602.51" y="1200" as="targetPoint" />
          </mxGeometry>
        </mxCell>
        <mxCell id="fhI_MAW543BDFD8Se3oL-206" value="索引" style="edgeLabel;html=1;align=center;verticalAlign=middle;resizable=0;points=[];" vertex="1" connectable="0" parent="fhI_MAW543BDFD8Se3oL-205">
          <mxGeometry x="0.0557" y="3" relative="1" as="geometry">
            <mxPoint y="1" as="offset" />
          </mxGeometry>
        </mxCell>
        <mxCell id="fhI_MAW543BDFD8Se3oL-207" value="" style="endArrow=classic;startArrow=classic;html=1;rounded=0;sketch=0;strokeColor=default;strokeWidth=2;jumpStyle=none;dashed=1;dashPattern=1 2;" edge="1" parent="1" source="fhI_MAW543BDFD8Se3oL-202" target="fhI_MAW543BDFD8Se3oL-204">
          <mxGeometry width="50" height="50" relative="1" as="geometry">
            <mxPoint x="582.4769137151825" y="1244.7216467308547" as="sourcePoint" />
            <mxPoint x="621.1464599647047" y="1227.5184237654419" as="targetPoint" />
          </mxGeometry>
        </mxCell>
        <mxCell id="fhI_MAW543BDFD8Se3oL-208" value="索引" style="edgeLabel;html=1;align=center;verticalAlign=middle;resizable=0;points=[];" vertex="1" connectable="0" parent="fhI_MAW543BDFD8Se3oL-207">
          <mxGeometry x="-0.0098" y="1" relative="1" as="geometry">
            <mxPoint as="offset" />
          </mxGeometry>
        </mxCell>
        <mxCell id="fhI_MAW543BDFD8Se3oL-113" value="数据操作模块" style="rounded=1;whiteSpace=wrap;html=1;strokeColor=default;" vertex="1" parent="1">
          <mxGeometry x="163" y="819" width="128" height="30" as="geometry" />
        </mxCell>
        <mxCell id="fhI_MAW543BDFD8Se3oL-116" value="多重哈希模块" style="rounded=1;whiteSpace=wrap;html=1;strokeColor=default;" vertex="1" parent="1">
          <mxGeometry x="311" y="819" width="128" height="30" as="geometry" />
        </mxCell>
        <mxCell id="fhI_MAW543BDFD8Se3oL-119" value="存储接入网关" style="rounded=1;whiteSpace=wrap;html=1;strokeColor=default;" vertex="1" parent="1">
          <mxGeometry x="163" y="779" width="128" height="30" as="geometry" />
        </mxCell>
        <mxCell id="fhI_MAW543BDFD8Se3oL-121" value="数据分级模块" style="rounded=1;whiteSpace=wrap;html=1;strokeColor=default;" vertex="1" parent="1">
          <mxGeometry x="311" y="779" width="128" height="30" as="geometry" />
        </mxCell>
        <mxCell id="fhI_MAW543BDFD8Se3oL-122" value="上链锚定模块" style="rounded=1;whiteSpace=wrap;html=1;strokeColor=default;" vertex="1" parent="1">
          <mxGeometry x="311" y="859" width="128" height="30" as="geometry" />
        </mxCell>
        <mxCell id="fhI_MAW543BDFD8Se3oL-123" value="证书管理模块" style="rounded=1;whiteSpace=wrap;html=1;strokeColor=default;" vertex="1" parent="1">
          <mxGeometry x="311" y="899" width="128" height="30" as="geometry" />
        </mxCell>
        <mxCell id="fhI_MAW543BDFD8Se3oL-128" value="数据监控模块" style="rounded=1;whiteSpace=wrap;html=1;strokeColor=default;" vertex="1" parent="1">
          <mxGeometry x="163" y="859" width="128" height="30" as="geometry" />
        </mxCell>
        <mxCell id="fhI_MAW543BDFD8Se3oL-129" value="数据存储模块" style="rounded=1;whiteSpace=wrap;html=1;strokeColor=default;" vertex="1" parent="1">
          <mxGeometry x="163" y="899" width="128" height="30" as="geometry" />
        </mxCell>
        <mxCell id="fhI_MAW543BDFD8Se3oL-215" value="" style="rounded=0;whiteSpace=wrap;html=1;strokeColor=default;verticalAlign=bottom;" vertex="1" parent="1">
          <mxGeometry x="121.88" y="1090" width="560" height="60" as="geometry" />
        </mxCell>
        <mxCell id="fhI_MAW543BDFD8Se3oL-220" value="存储资源管理" style="rounded=1;whiteSpace=wrap;html=1;strokeColor=default;verticalAlign=middle;labelPosition=center;verticalLabelPosition=middle;align=center;" vertex="1" parent="1">
          <mxGeometry x="298.26" y="1100" width="85.5" height="40" as="geometry" />
        </mxCell>
        <mxCell id="fhI_MAW543BDFD8Se3oL-221" value="服务接入认证" style="rounded=1;whiteSpace=wrap;html=1;strokeColor=default;verticalAlign=middle;labelPosition=center;verticalLabelPosition=middle;align=center;" vertex="1" parent="1">
          <mxGeometry x="204.51" y="1100" width="85.5" height="40" as="geometry" />
        </mxCell>
        <mxCell id="fhI_MAW543BDFD8Se3oL-222" value="数据资产管理" style="rounded=1;whiteSpace=wrap;html=1;strokeColor=default;verticalAlign=middle;labelPosition=center;verticalLabelPosition=middle;align=center;" vertex="1" parent="1">
          <mxGeometry x="395.01" y="1100" width="85.5" height="40" as="geometry" />
        </mxCell>
        <mxCell id="fhI_MAW543BDFD8Se3oL-223" value="访问授权管理" style="rounded=1;whiteSpace=wrap;html=1;strokeColor=default;verticalAlign=middle;labelPosition=center;verticalLabelPosition=middle;align=center;" vertex="1" parent="1">
          <mxGeometry x="490.76" y="1100" width="85.5" height="40" as="geometry" />
        </mxCell>
        <mxCell id="fhI_MAW543BDFD8Se3oL-224" value="资产凭证管理" style="rounded=1;whiteSpace=wrap;html=1;strokeColor=default;verticalAlign=middle;labelPosition=center;verticalLabelPosition=middle;align=center;" vertex="1" parent="1">
          <mxGeometry x="584.76" y="1100" width="85.5" height="40" as="geometry" />
        </mxCell>
        <mxCell id="fhI_MAW543BDFD8Se3oL-225" value="存储合约" style="text;html=1;strokeColor=none;fillColor=none;align=center;verticalAlign=middle;whiteSpace=wrap;rounded=0;fontStyle=1" vertex="1" parent="1">
          <mxGeometry x="133.26" y="1105" width="60" height="30" as="geometry" />
        </mxCell>
        <mxCell id="fhI_MAW543BDFD8Se3oL-230" value="" style="rounded=0;whiteSpace=wrap;html=1;fillColor=#FFFFFF;" vertex="1" parent="1">
          <mxGeometry x="91" y="1740" width="800" height="570" as="geometry" />
        </mxCell>
        <mxCell id="fhI_MAW543BDFD8Se3oL-231" value="用户设备" style="rounded=0;whiteSpace=wrap;html=1;labelBackgroundColor=none;fillColor=none;fontColor=#000000;strokeColor=#000000;" vertex="1" parent="1">
          <mxGeometry x="121" y="1780" width="120" height="40" as="geometry" />
        </mxCell>
        <mxCell id="fhI_MAW543BDFD8Se3oL-232" value="可信存储服务" style="rounded=0;whiteSpace=wrap;html=1;labelBackgroundColor=none;fillColor=none;fontColor=#000000;strokeColor=#000000;" vertex="1" parent="1">
          <mxGeometry x="321" y="1780" width="120" height="40" as="geometry" />
        </mxCell>
        <mxCell id="fhI_MAW543BDFD8Se3oL-233" value="区块链数据服务" style="rounded=0;whiteSpace=wrap;html=1;labelBackgroundColor=none;fillColor=none;fontColor=#000000;strokeColor=#000000;" vertex="1" parent="1">
          <mxGeometry x="521" y="1780" width="120" height="40" as="geometry" />
        </mxCell>
        <mxCell id="fhI_MAW543BDFD8Se3oL-234" value="智能合约服务" style="rounded=0;whiteSpace=wrap;html=1;labelBackgroundColor=none;fillColor=none;fontColor=#000000;strokeColor=#000000;" vertex="1" parent="1">
          <mxGeometry x="721" y="1780" width="120" height="40" as="geometry" />
        </mxCell>
        <mxCell id="fhI_MAW543BDFD8Se3oL-235" value="" style="endArrow=none;dashed=1;html=1;strokeWidth=3;entryX=0.445;entryY=1.07;entryDx=0;entryDy=0;entryPerimeter=0;labelBackgroundColor=none;fontColor=#000000;strokeColor=#000000;" edge="1" parent="1">
          <mxGeometry width="50" height="50" relative="1" as="geometry">
            <mxPoint x="179" y="2280" as="sourcePoint" />
            <mxPoint x="179.39999999999998" y="1822.8" as="targetPoint" />
          </mxGeometry>
        </mxCell>
        <mxCell id="fhI_MAW543BDFD8Se3oL-236" value="" style="endArrow=none;dashed=1;html=1;strokeWidth=3;entryX=0.445;entryY=1.07;entryDx=0;entryDy=0;entryPerimeter=0;labelBackgroundColor=none;fontColor=#000000;strokeColor=#000000;" edge="1" parent="1">
          <mxGeometry width="50" height="50" relative="1" as="geometry">
            <mxPoint x="380.5" y="2277.2" as="sourcePoint" />
            <mxPoint x="380.9000000000001" y="1820" as="targetPoint" />
          </mxGeometry>
        </mxCell>
        <mxCell id="fhI_MAW543BDFD8Se3oL-237" value="" style="endArrow=none;dashed=1;html=1;strokeWidth=3;entryX=0.445;entryY=1.07;entryDx=0;entryDy=0;entryPerimeter=0;labelBackgroundColor=none;fontColor=#000000;strokeColor=#000000;" edge="1" parent="1">
          <mxGeometry width="50" height="50" relative="1" as="geometry">
            <mxPoint x="580.5" y="2277.2" as="sourcePoint" />
            <mxPoint x="580.9000000000001" y="1820" as="targetPoint" />
          </mxGeometry>
        </mxCell>
        <mxCell id="fhI_MAW543BDFD8Se3oL-238" value="" style="endArrow=none;dashed=1;html=1;strokeWidth=3;entryX=0.445;entryY=1.07;entryDx=0;entryDy=0;entryPerimeter=0;labelBackgroundColor=none;fontColor=#000000;strokeColor=#000000;" edge="1" parent="1">
          <mxGeometry width="50" height="50" relative="1" as="geometry">
            <mxPoint x="780.5" y="2277.2" as="sourcePoint" />
            <mxPoint x="780.9000000000001" y="1820" as="targetPoint" />
          </mxGeometry>
        </mxCell>
        <mxCell id="fhI_MAW543BDFD8Se3oL-239" value="" style="endArrow=classic;html=1;strokeWidth=2;labelBackgroundColor=none;fontColor=#000000;labelBorderColor=none;strokeColor=#999999;" edge="1" parent="1">
          <mxGeometry width="50" height="50" relative="1" as="geometry">
            <mxPoint x="181" y="1860" as="sourcePoint" />
            <mxPoint x="581" y="1860" as="targetPoint" />
          </mxGeometry>
        </mxCell>
        <mxCell id="fhI_MAW543BDFD8Se3oL-240" value="成员接入校验" style="edgeLabel;html=1;align=center;verticalAlign=middle;resizable=0;points=[];labelBackgroundColor=none;fontColor=#000000;labelBorderColor=none;" vertex="1" connectable="0" parent="fhI_MAW543BDFD8Se3oL-239">
          <mxGeometry x="-0.274" y="1" relative="1" as="geometry">
            <mxPoint as="offset" />
          </mxGeometry>
        </mxCell>
        <mxCell id="fhI_MAW543BDFD8Se3oL-241" value="" style="endArrow=classic;html=1;strokeWidth=2;labelBackgroundColor=none;fontColor=#000000;labelBorderColor=none;strokeColor=#999999;" edge="1" parent="1">
          <mxGeometry width="50" height="50" relative="1" as="geometry">
            <mxPoint x="181" y="1940" as="sourcePoint" />
            <mxPoint x="781" y="1940" as="targetPoint" />
          </mxGeometry>
        </mxCell>
        <mxCell id="fhI_MAW543BDFD8Se3oL-242" value="存储资源请求" style="edgeLabel;html=1;align=center;verticalAlign=middle;resizable=0;points=[];labelBackgroundColor=none;fontColor=#000000;labelBorderColor=none;" vertex="1" connectable="0" parent="fhI_MAW543BDFD8Se3oL-241">
          <mxGeometry x="-0.426" y="1" relative="1" as="geometry">
            <mxPoint as="offset" />
          </mxGeometry>
        </mxCell>
        <mxCell id="fhI_MAW543BDFD8Se3oL-243" value="" style="endArrow=classic;html=1;strokeWidth=2;labelBackgroundColor=none;fontColor=#000000;labelBorderColor=none;strokeColor=#999999;" edge="1" parent="1">
          <mxGeometry width="50" height="50" relative="1" as="geometry">
            <mxPoint x="181" y="2020" as="sourcePoint" />
            <mxPoint x="381" y="2020" as="targetPoint" />
          </mxGeometry>
        </mxCell>
        <mxCell id="fhI_MAW543BDFD8Se3oL-244" value="数据资产存储请求" style="edgeLabel;html=1;align=center;verticalAlign=middle;resizable=0;points=[];labelBackgroundColor=none;fontColor=#000000;labelBorderColor=none;" vertex="1" connectable="0" parent="fhI_MAW543BDFD8Se3oL-243">
          <mxGeometry x="0.1721" y="-1" relative="1" as="geometry">
            <mxPoint as="offset" />
          </mxGeometry>
        </mxCell>
        <mxCell id="fhI_MAW543BDFD8Se3oL-245" value="" style="endArrow=classic;html=1;strokeWidth=2;labelBackgroundColor=none;fontColor=#000000;labelBorderColor=none;strokeColor=#999999;" edge="1" parent="1">
          <mxGeometry width="50" height="50" relative="1" as="geometry">
            <mxPoint x="181" y="2100" as="sourcePoint" />
            <mxPoint x="781" y="2100" as="targetPoint" />
          </mxGeometry>
        </mxCell>
        <mxCell id="fhI_MAW543BDFD8Se3oL-246" value="元数据及加密指纹上链存储" style="edgeLabel;html=1;align=center;verticalAlign=middle;resizable=0;points=[];labelBackgroundColor=none;fontColor=#000000;labelBorderColor=none;" vertex="1" connectable="0" parent="fhI_MAW543BDFD8Se3oL-245">
          <mxGeometry x="0.1721" y="-1" relative="1" as="geometry">
            <mxPoint x="-84" as="offset" />
          </mxGeometry>
        </mxCell>
        <mxCell id="fhI_MAW543BDFD8Se3oL-247" value="" style="curved=1;endArrow=classic;html=1;strokeWidth=2;dashed=1;dashPattern=1 1;labelBackgroundColor=none;fontColor=#000000;labelBorderColor=none;strokeColor=#999999;" edge="1" parent="1">
          <mxGeometry width="50" height="50" relative="1" as="geometry">
            <mxPoint x="381" y="2020" as="sourcePoint" />
            <mxPoint x="381" y="2060" as="targetPoint" />
            <Array as="points">
              <mxPoint x="411" y="2020" />
              <mxPoint x="411" y="2060" />
            </Array>
          </mxGeometry>
        </mxCell>
        <mxCell id="fhI_MAW543BDFD8Se3oL-248" value="" style="curved=1;endArrow=classic;html=1;strokeWidth=2;dashed=1;dashPattern=1 1;labelBackgroundColor=none;fontColor=#000000;labelBorderColor=none;strokeColor=#999999;" edge="1" parent="1">
          <mxGeometry width="50" height="50" relative="1" as="geometry">
            <mxPoint x="581" y="1860" as="sourcePoint" />
            <mxPoint x="581" y="1900" as="targetPoint" />
            <Array as="points">
              <mxPoint x="611" y="1860" />
              <mxPoint x="611" y="1900" />
            </Array>
          </mxGeometry>
        </mxCell>
        <mxCell id="fhI_MAW543BDFD8Se3oL-249" value="" style="curved=1;endArrow=classic;html=1;strokeWidth=2;dashed=1;dashPattern=1 1;labelBackgroundColor=none;fontColor=#000000;labelBorderColor=none;strokeColor=#999999;" edge="1" parent="1">
          <mxGeometry width="50" height="50" relative="1" as="geometry">
            <mxPoint x="581" y="2140" as="sourcePoint" />
            <mxPoint x="581" y="2180" as="targetPoint" />
            <Array as="points">
              <mxPoint x="611" y="2140" />
              <mxPoint x="611" y="2180" />
            </Array>
          </mxGeometry>
        </mxCell>
        <mxCell id="fhI_MAW543BDFD8Se3oL-250" value="" style="endArrow=none;html=1;strokeWidth=2;endFill=0;startArrow=classic;startFill=1;labelBackgroundColor=none;fontColor=#000000;labelBorderColor=none;strokeColor=#999999;" edge="1" parent="1">
          <mxGeometry width="50" height="50" relative="1" as="geometry">
            <mxPoint x="581" y="2140" as="sourcePoint" />
            <mxPoint x="781" y="2140" as="targetPoint" />
          </mxGeometry>
        </mxCell>
        <mxCell id="fhI_MAW543BDFD8Se3oL-251" value="哈希锚定" style="edgeLabel;html=1;align=center;verticalAlign=middle;resizable=0;points=[];labelBackgroundColor=none;fontColor=#000000;labelBorderColor=none;" vertex="1" connectable="0" parent="fhI_MAW543BDFD8Se3oL-250">
          <mxGeometry x="0.1721" y="-1" relative="1" as="geometry">
            <mxPoint x="-17" as="offset" />
          </mxGeometry>
        </mxCell>
        <mxCell id="fhI_MAW543BDFD8Se3oL-252" value="多重哈希" style="text;html=1;strokeColor=none;fillColor=none;align=center;verticalAlign=middle;whiteSpace=wrap;rounded=0;labelBackgroundColor=none;fontColor=#000000;labelBorderColor=none;" vertex="1" parent="1">
          <mxGeometry x="411" y="2028" width="60" height="20" as="geometry" />
        </mxCell>
        <mxCell id="fhI_MAW543BDFD8Se3oL-253" value="权限校验" style="text;html=1;strokeColor=none;fillColor=none;align=center;verticalAlign=middle;whiteSpace=wrap;rounded=0;labelBackgroundColor=none;fontColor=#000000;labelBorderColor=none;" vertex="1" parent="1">
          <mxGeometry x="611" y="1870" width="60" height="20" as="geometry" />
        </mxCell>
        <mxCell id="fhI_MAW543BDFD8Se3oL-254" value="" style="endArrow=none;html=1;strokeWidth=2;endFill=0;startArrow=classic;startFill=1;labelBackgroundColor=none;fontColor=#000000;labelBorderColor=none;strokeColor=#999999;" edge="1" parent="1">
          <mxGeometry width="50" height="50" relative="1" as="geometry">
            <mxPoint x="181" y="1980" as="sourcePoint" />
            <mxPoint x="781" y="1980" as="targetPoint" />
          </mxGeometry>
        </mxCell>
        <mxCell id="fhI_MAW543BDFD8Se3oL-255" value="返回存储URL" style="edgeLabel;html=1;align=center;verticalAlign=middle;resizable=0;points=[];labelBackgroundColor=none;fontColor=#000000;labelBorderColor=none;" vertex="1" connectable="0" parent="fhI_MAW543BDFD8Se3oL-254">
          <mxGeometry x="0.1721" y="-1" relative="1" as="geometry">
            <mxPoint x="-17" as="offset" />
          </mxGeometry>
        </mxCell>
        <mxCell id="fhI_MAW543BDFD8Se3oL-256" value="" style="endArrow=none;html=1;strokeWidth=2;endFill=0;startArrow=classic;startFill=1;labelBackgroundColor=none;fontColor=#000000;labelBorderColor=none;strokeColor=#999999;" edge="1" parent="1">
          <mxGeometry width="50" height="50" relative="1" as="geometry">
            <mxPoint x="181" y="1900" as="sourcePoint" />
            <mxPoint x="581" y="1900" as="targetPoint" />
          </mxGeometry>
        </mxCell>
        <mxCell id="fhI_MAW543BDFD8Se3oL-257" value="返回接入凭证" style="edgeLabel;html=1;align=center;verticalAlign=middle;resizable=0;points=[];labelBackgroundColor=none;fontColor=#000000;labelBorderColor=none;" vertex="1" connectable="0" parent="fhI_MAW543BDFD8Se3oL-256">
          <mxGeometry x="0.1721" y="-1" relative="1" as="geometry">
            <mxPoint x="-17" as="offset" />
          </mxGeometry>
        </mxCell>
        <mxCell id="fhI_MAW543BDFD8Se3oL-258" value="" style="curved=1;endArrow=classic;html=1;strokeWidth=2;dashed=1;dashPattern=1 1;labelBackgroundColor=none;fontColor=#000000;labelBorderColor=none;strokeColor=#999999;" edge="1" parent="1">
          <mxGeometry width="50" height="50" relative="1" as="geometry">
            <mxPoint x="781" y="1940" as="sourcePoint" />
            <mxPoint x="781" y="1980" as="targetPoint" />
            <Array as="points">
              <mxPoint x="811" y="1940" />
              <mxPoint x="811" y="1980" />
            </Array>
          </mxGeometry>
        </mxCell>
        <mxCell id="fhI_MAW543BDFD8Se3oL-259" value="存储资源校验" style="text;html=1;strokeColor=none;fillColor=none;align=center;verticalAlign=middle;whiteSpace=wrap;rounded=0;labelBackgroundColor=none;fontColor=#000000;labelBorderColor=none;" vertex="1" parent="1">
          <mxGeometry x="811" y="1950" width="60" height="20" as="geometry" />
        </mxCell>
        <mxCell id="fhI_MAW543BDFD8Se3oL-260" value="操作存证" style="text;html=1;strokeColor=none;fillColor=none;align=center;verticalAlign=middle;whiteSpace=wrap;rounded=0;labelBackgroundColor=none;fontColor=#000000;labelBorderColor=none;" vertex="1" parent="1">
          <mxGeometry x="611" y="2150" width="60" height="20" as="geometry" />
        </mxCell>
        <mxCell id="fhI_MAW543BDFD8Se3oL-261" value="" style="endArrow=none;html=1;strokeWidth=2;endFill=0;startArrow=classic;startFill=1;labelBackgroundColor=none;fontColor=#000000;labelBorderColor=none;strokeColor=#999999;" edge="1" parent="1">
          <mxGeometry width="50" height="50" relative="1" as="geometry">
            <mxPoint x="181" y="2180" as="sourcePoint" />
            <mxPoint x="581" y="2180" as="targetPoint" />
          </mxGeometry>
        </mxCell>
        <mxCell id="fhI_MAW543BDFD8Se3oL-262" value="数字资产存储成功" style="edgeLabel;html=1;align=center;verticalAlign=middle;resizable=0;points=[];labelBackgroundColor=none;fontColor=#000000;labelBorderColor=none;" vertex="1" connectable="0" parent="fhI_MAW543BDFD8Se3oL-261">
          <mxGeometry x="0.1721" y="-1" relative="1" as="geometry">
            <mxPoint x="-17" as="offset" />
          </mxGeometry>
        </mxCell>
        <mxCell id="fhI_MAW543BDFD8Se3oL-263" value="" style="curved=1;endArrow=classic;html=1;strokeWidth=2;dashed=1;dashPattern=1 1;labelBackgroundColor=none;fontColor=#000000;labelBorderColor=none;strokeColor=#999999;" edge="1" parent="1">
          <mxGeometry width="50" height="50" relative="1" as="geometry">
            <mxPoint x="181" y="2060" as="sourcePoint" />
            <mxPoint x="181" y="2100" as="targetPoint" />
            <Array as="points">
              <mxPoint x="211" y="2060" />
              <mxPoint x="211" y="2100" />
            </Array>
          </mxGeometry>
        </mxCell>
        <mxCell id="fhI_MAW543BDFD8Se3oL-264" value="安全加密" style="text;html=1;strokeColor=none;fillColor=none;align=center;verticalAlign=middle;whiteSpace=wrap;rounded=0;labelBackgroundColor=none;fontColor=#000000;labelBorderColor=none;" vertex="1" parent="1">
          <mxGeometry x="211" y="2070" width="60" height="20" as="geometry" />
        </mxCell>
        <mxCell id="fhI_MAW543BDFD8Se3oL-265" value="" style="endArrow=none;html=1;strokeWidth=2;endFill=0;startArrow=classic;startFill=1;labelBackgroundColor=none;fontColor=#000000;labelBorderColor=none;strokeColor=#999999;" edge="1" parent="1">
          <mxGeometry width="50" height="50" relative="1" as="geometry">
            <mxPoint x="181" y="2060" as="sourcePoint" />
            <mxPoint x="381" y="2060" as="targetPoint" />
          </mxGeometry>
        </mxCell>
        <mxCell id="fhI_MAW543BDFD8Se3oL-266" value="数据指纹" style="edgeLabel;html=1;align=center;verticalAlign=middle;resizable=0;points=[];labelBackgroundColor=none;fontColor=#000000;labelBorderColor=none;" vertex="1" connectable="0" parent="fhI_MAW543BDFD8Se3oL-265">
          <mxGeometry x="0.1721" y="-1" relative="1" as="geometry">
            <mxPoint x="-17" as="offset" />
          </mxGeometry>
        </mxCell>
        <mxCell id="fhI_MAW543BDFD8Se3oL-267" value="2" style="whiteSpace=wrap;html=1;shape=partialRectangle;top=0;left=0;bottom=1;right=0;points=[[0,1],[1,1]];fillColor=none;align=center;verticalAlign=bottom;routingCenterY=0.5;snapToPoint=1;recursiveResize=0;autosize=1;treeFolding=1;treeMoving=1;newEdgeStyle={&quot;edgeStyle&quot;:&quot;entityRelationEdgeStyle&quot;,&quot;startArrow&quot;:&quot;none&quot;,&quot;endArrow&quot;:&quot;none&quot;,&quot;segment&quot;:10,&quot;curved&quot;:1};strokeColor=default;strokeWidth=1;" vertex="1" parent="1">
          <mxGeometry x="452.88" y="580" width="40" height="20" as="geometry" />
        </mxCell>
        <mxCell id="fhI_MAW543BDFD8Se3oL-268" value="" style="edgeStyle=entityRelationEdgeStyle;startArrow=none;endArrow=none;segment=10;curved=1;rounded=0;sketch=0;strokeColor=default;strokeWidth=1;jumpStyle=none;" edge="1" target="fhI_MAW543BDFD8Se3oL-267" parent="1">
          <mxGeometry relative="1" as="geometry">
            <mxPoint x="392.88" y="620" as="sourcePoint" />
          </mxGeometry>
        </mxCell>
        <mxCell id="fhI_MAW543BDFD8Se3oL-269" value="21" style="whiteSpace=wrap;html=1;shape=partialRectangle;top=0;left=0;bottom=1;right=0;points=[[0,1],[1,1]];fillColor=none;align=center;verticalAlign=bottom;routingCenterY=0.5;snapToPoint=1;recursiveResize=0;autosize=1;treeFolding=1;treeMoving=1;newEdgeStyle={&quot;edgeStyle&quot;:&quot;entityRelationEdgeStyle&quot;,&quot;startArrow&quot;:&quot;none&quot;,&quot;endArrow&quot;:&quot;none&quot;,&quot;segment&quot;:10,&quot;curved&quot;:1};strokeColor=default;strokeWidth=1;" vertex="1" parent="1">
          <mxGeometry x="625" y="609" width="50" height="20" as="geometry" />
        </mxCell>
        <mxCell id="fhI_MAW543BDFD8Se3oL-270" value="" style="edgeStyle=entityRelationEdgeStyle;startArrow=none;endArrow=none;segment=10;curved=1;rounded=0;sketch=0;strokeColor=default;strokeWidth=1;jumpStyle=none;" edge="1" parent="1" target="fhI_MAW543BDFD8Se3oL-269">
          <mxGeometry relative="1" as="geometry">
            <mxPoint x="568.5000000000001" y="649" as="sourcePoint" />
          </mxGeometry>
        </mxCell>
        <mxCell id="fhI_MAW543BDFD8Se3oL-271" value="23" style="whiteSpace=wrap;html=1;shape=partialRectangle;top=0;left=0;bottom=1;right=0;points=[[0,1],[1,1]];fillColor=none;align=center;verticalAlign=bottom;routingCenterY=0.5;snapToPoint=1;recursiveResize=0;autosize=1;treeFolding=1;treeMoving=1;newEdgeStyle={&quot;edgeStyle&quot;:&quot;entityRelationEdgeStyle&quot;,&quot;startArrow&quot;:&quot;none&quot;,&quot;endArrow&quot;:&quot;none&quot;,&quot;segment&quot;:10,&quot;curved&quot;:1};strokeColor=default;strokeWidth=1;" vertex="1" parent="1">
          <mxGeometry x="237.88" y="609" width="50" height="20" as="geometry" />
        </mxCell>
        <mxCell id="fhI_MAW543BDFD8Se3oL-272" value="" style="edgeStyle=entityRelationEdgeStyle;startArrow=none;endArrow=none;segment=10;curved=1;rounded=0;sketch=0;strokeColor=default;strokeWidth=1;jumpStyle=none;" edge="1" parent="1" target="fhI_MAW543BDFD8Se3oL-271">
          <mxGeometry relative="1" as="geometry">
            <mxPoint x="181.38" y="649" as="sourcePoint" />
          </mxGeometry>
        </mxCell>
        <mxCell id="fhI_MAW543BDFD8Se3oL-273" value="22" style="whiteSpace=wrap;html=1;shape=partialRectangle;top=0;left=0;bottom=1;right=0;points=[[0,1],[1,1]];fillColor=none;align=center;verticalAlign=bottom;routingCenterY=0.5;snapToPoint=1;recursiveResize=0;autosize=1;treeFolding=1;treeMoving=1;newEdgeStyle={&quot;edgeStyle&quot;:&quot;entityRelationEdgeStyle&quot;,&quot;startArrow&quot;:&quot;none&quot;,&quot;endArrow&quot;:&quot;none&quot;,&quot;segment&quot;:10,&quot;curved&quot;:1};strokeColor=default;strokeWidth=1;" vertex="1" parent="1">
          <mxGeometry x="457.5" y="719" width="50" height="20" as="geometry" />
        </mxCell>
        <mxCell id="fhI_MAW543BDFD8Se3oL-274" value="" style="edgeStyle=entityRelationEdgeStyle;startArrow=none;endArrow=none;segment=10;curved=1;rounded=0;sketch=0;strokeColor=default;strokeWidth=1;jumpStyle=none;exitX=0.446;exitY=1.013;exitDx=0;exitDy=0;exitPerimeter=0;" edge="1" parent="1" target="fhI_MAW543BDFD8Se3oL-273" source="fhI_MAW543BDFD8Se3oL-104">
          <mxGeometry relative="1" as="geometry">
            <mxPoint x="381.38" y="640" as="sourcePoint" />
          </mxGeometry>
        </mxCell>
        <mxCell id="fhI_MAW543BDFD8Se3oL-275" value="24" style="whiteSpace=wrap;html=1;shape=partialRectangle;top=0;left=0;bottom=1;right=0;points=[[0,1],[1,1]];fillColor=none;align=center;verticalAlign=bottom;routingCenterY=0.5;snapToPoint=1;recursiveResize=0;autosize=1;treeFolding=1;treeMoving=1;newEdgeStyle={&quot;edgeStyle&quot;:&quot;entityRelationEdgeStyle&quot;,&quot;startArrow&quot;:&quot;none&quot;,&quot;endArrow&quot;:&quot;none&quot;,&quot;segment&quot;:10,&quot;curved&quot;:1};strokeColor=default;strokeWidth=1;" vertex="1" parent="1">
          <mxGeometry x="286.38" y="724" width="50" height="20" as="geometry" />
        </mxCell>
        <mxCell id="fhI_MAW543BDFD8Se3oL-276" value="" style="edgeStyle=entityRelationEdgeStyle;startArrow=none;endArrow=none;segment=10;curved=1;rounded=0;sketch=0;strokeColor=default;strokeWidth=1;jumpStyle=none;" edge="1" parent="1" target="fhI_MAW543BDFD8Se3oL-275">
          <mxGeometry relative="1" as="geometry">
            <mxPoint x="229.88" y="764" as="sourcePoint" />
          </mxGeometry>
        </mxCell>
        <mxCell id="fhI_MAW543BDFD8Se3oL-277" value="25" style="whiteSpace=wrap;html=1;shape=partialRectangle;top=0;left=0;bottom=1;right=0;points=[[0,1],[1,1]];fillColor=none;align=center;verticalAlign=bottom;routingCenterY=0.5;snapToPoint=1;recursiveResize=0;autosize=1;treeFolding=1;treeMoving=1;newEdgeStyle={&quot;edgeStyle&quot;:&quot;entityRelationEdgeStyle&quot;,&quot;startArrow&quot;:&quot;none&quot;,&quot;endArrow&quot;:&quot;none&quot;,&quot;segment&quot;:10,&quot;curved&quot;:1};strokeColor=default;strokeWidth=1;" vertex="1" parent="1">
          <mxGeometry x="630" y="724" width="50" height="20" as="geometry" />
        </mxCell>
        <mxCell id="fhI_MAW543BDFD8Se3oL-278" value="" style="edgeStyle=entityRelationEdgeStyle;startArrow=none;endArrow=none;segment=10;curved=1;rounded=0;sketch=0;strokeColor=default;strokeWidth=1;jumpStyle=none;" edge="1" parent="1" target="fhI_MAW543BDFD8Se3oL-277">
          <mxGeometry relative="1" as="geometry">
            <mxPoint x="573.5" y="764" as="sourcePoint" />
          </mxGeometry>
        </mxCell>
        <mxCell id="fhI_MAW543BDFD8Se3oL-283" value="3" style="whiteSpace=wrap;html=1;shape=partialRectangle;top=0;left=0;bottom=1;right=0;points=[[0,1],[1,1]];fillColor=none;align=center;verticalAlign=bottom;routingCenterY=0.5;snapToPoint=1;recursiveResize=0;autosize=1;treeFolding=1;treeMoving=1;newEdgeStyle={&quot;edgeStyle&quot;:&quot;entityRelationEdgeStyle&quot;,&quot;startArrow&quot;:&quot;none&quot;,&quot;endArrow&quot;:&quot;none&quot;,&quot;segment&quot;:10,&quot;curved&quot;:1};strokeColor=default;strokeWidth=1;" vertex="1" parent="1">
          <mxGeometry x="447.38" y="1039" width="40" height="20" as="geometry" />
        </mxCell>
        <mxCell id="fhI_MAW543BDFD8Se3oL-284" value="" style="edgeStyle=entityRelationEdgeStyle;startArrow=none;endArrow=none;segment=10;curved=1;rounded=0;sketch=0;strokeColor=default;strokeWidth=1;jumpStyle=none;" edge="1" parent="1" target="fhI_MAW543BDFD8Se3oL-283">
          <mxGeometry relative="1" as="geometry">
            <mxPoint x="387.3800000000001" y="1079" as="sourcePoint" />
          </mxGeometry>
        </mxCell>
        <mxCell id="fhI_MAW543BDFD8Se3oL-285" value="31" style="whiteSpace=wrap;html=1;shape=partialRectangle;top=0;left=0;bottom=1;right=0;points=[[0,1],[1,1]];fillColor=none;align=center;verticalAlign=bottom;routingCenterY=0.5;snapToPoint=1;recursiveResize=0;autosize=1;treeFolding=1;treeMoving=1;newEdgeStyle={&quot;edgeStyle&quot;:&quot;entityRelationEdgeStyle&quot;,&quot;startArrow&quot;:&quot;none&quot;,&quot;endArrow&quot;:&quot;none&quot;,&quot;segment&quot;:10,&quot;curved&quot;:1};strokeColor=default;strokeWidth=1;" vertex="1" parent="1">
          <mxGeometry x="15" y="1085" width="50" height="20" as="geometry" />
        </mxCell>
        <mxCell id="fhI_MAW543BDFD8Se3oL-286" value="" style="edgeStyle=entityRelationEdgeStyle;startArrow=none;endArrow=none;segment=10;curved=1;rounded=0;sketch=0;strokeColor=default;strokeWidth=1;jumpStyle=none;exitX=0;exitY=0.5;exitDx=0;exitDy=0;" edge="1" parent="1" target="fhI_MAW543BDFD8Se3oL-285" source="fhI_MAW543BDFD8Se3oL-215">
          <mxGeometry relative="1" as="geometry">
            <mxPoint x="122.88000000000011" y="1120" as="sourcePoint" />
          </mxGeometry>
        </mxCell>
        <mxCell id="fhI_MAW543BDFD8Se3oL-287" value="" style="rounded=0;whiteSpace=wrap;html=1;strokeColor=default;verticalAlign=bottom;" vertex="1" parent="1">
          <mxGeometry x="101" y="1160" width="599" height="190" as="geometry" />
        </mxCell>
      </root>
    </mxGraphModel>
  </diagram>
</mxfile>
